<svg width="16" height="16" viewBox="0 0 16 16" fill="none" xmlns="http://www.w3.org/2000/svg">
<path d="M4.49975 1.6666C4.32941 1.6644 4.16065 1.69953 4.00534 1.76952C3.85003 1.83951 3.71193 1.94266 3.60074 2.07172C3.48955 2.20078 3.40796 2.35262 3.36172 2.51658C3.31548 2.68053 3.30571 2.85263 3.33308 3.02077V12.9758C3.30518 13.1442 3.31456 13.3167 3.36055 13.481C3.40655 13.6454 3.48805 13.7977 3.5993 13.9271C3.71055 14.0565 3.84884 14.16 4.00442 14.2302C4.16 14.3004 4.32908 14.3355 4.49975 14.3333H9.49975C11.603 14.3333 13.3331 12.6032 13.3331 10.4999C13.3331 9.19204 12.6228 8.08552 11.6111 7.39251C12.0312 6.79626 12.3331 6.11118 12.3331 5.33327C12.3331 3.32204 10.6776 1.6666 8.66641 1.6666H4.49975ZM5.66641 3.99993H8.66641C9.41652 3.99993 9.99975 4.58316 9.99975 5.33327C9.99975 6.08337 9.41652 6.6666 8.66641 6.6666H5.83308C5.77733 6.6663 5.72163 6.67 5.66641 6.67767V3.99993ZM5.66641 8.98887C5.69472 8.99295 5.72317 8.99599 5.7517 8.99798C5.7788 8.99958 5.80594 9.00023 5.83308 8.99993H8.66641H9.49975C10.3418 8.99993 10.9997 9.65787 10.9997 10.4999C10.9997 11.342 10.3418 11.9999 9.49975 11.9999H5.66641V8.98887Z" fill="#393E40"/>
</svg>
