<svg width="16" height="16" viewBox="0 0 16 16" fill="none" xmlns="http://www.w3.org/2000/svg">
<path d="M3.16663 3.3333C3.10037 3.33236 3.03459 3.34461 2.9731 3.36931C2.91162 3.39402 2.85566 3.4307 2.80848 3.47722C2.76129 3.52374 2.72382 3.57918 2.69825 3.64031C2.67267 3.70144 2.65951 3.76704 2.65951 3.8333C2.65951 3.89956 2.67267 3.96517 2.69825 4.02629C2.72382 4.08742 2.76129 4.14286 2.80848 4.18938C2.85566 4.2359 2.91162 4.27258 2.9731 4.29729C3.03459 4.322 3.10037 4.33424 3.16663 4.3333H12.8333C12.8995 4.33424 12.9653 4.322 13.0268 4.29729C13.0883 4.27258 13.1443 4.2359 13.1914 4.18938C13.2386 4.14286 13.2761 4.08742 13.3017 4.02629C13.3272 3.96517 13.3404 3.89956 13.3404 3.8333C13.3404 3.76704 13.3272 3.70144 13.3017 3.64031C13.2761 3.57918 13.2386 3.52374 13.1914 3.47722C13.1443 3.4307 13.0883 3.39402 13.0268 3.36931C12.9653 3.34461 12.8995 3.33236 12.8333 3.3333H3.16663ZM1.83329 7.66664C1.76704 7.6657 1.70126 7.67794 1.63977 7.70265C1.57829 7.72735 1.52233 7.76403 1.47514 7.81055C1.42796 7.85708 1.39049 7.91251 1.36492 7.97364C1.33934 8.03477 1.32617 8.10037 1.32617 8.16664C1.32617 8.2329 1.33934 8.2985 1.36492 8.35963C1.39049 8.42076 1.42796 8.47619 1.47514 8.52271C1.52233 8.56924 1.57829 8.60592 1.63977 8.63062C1.70126 8.65533 1.76704 8.66757 1.83329 8.66664H14.1666C14.2329 8.66757 14.2987 8.65533 14.3601 8.63062C14.4216 8.60592 14.4776 8.56924 14.5248 8.52271C14.572 8.47619 14.6094 8.42076 14.635 8.35963C14.6606 8.2985 14.6737 8.2329 14.6737 8.16664C14.6737 8.10037 14.6606 8.03477 14.635 7.97364C14.6094 7.91251 14.572 7.85708 14.5248 7.81055C14.4776 7.76403 14.4216 7.72735 14.3601 7.70265C14.2987 7.67794 14.2329 7.6657 14.1666 7.66664H1.83329ZM4.49996 12C4.4337 11.999 4.36792 12.0113 4.30644 12.036C4.24495 12.0607 4.18899 12.0974 4.14181 12.1439C4.09462 12.1904 4.05716 12.2458 4.03158 12.307C4.00601 12.3681 3.99284 12.4337 3.99284 12.5C3.99284 12.5662 4.00601 12.6318 4.03158 12.693C4.05716 12.7541 4.09462 12.8095 4.14181 12.856C4.18899 12.9026 4.24495 12.9393 4.30644 12.964C4.36792 12.9887 4.4337 13.0009 4.49996 13H11.5C11.5662 13.0009 11.632 12.9887 11.6935 12.964C11.755 12.9393 11.8109 12.9026 11.8581 12.856C11.9053 12.8095 11.9428 12.7541 11.9683 12.693C11.9939 12.6318 12.0071 12.5662 12.0071 12.5C12.0071 12.4337 11.9939 12.3681 11.9683 12.307C11.9428 12.2458 11.9053 12.1904 11.8581 12.1439C11.8109 12.0974 11.755 12.0607 11.6935 12.036C11.632 12.0113 11.5662 11.999 11.5 12H4.49996Z" fill="#393E40"/>
</svg>
