<svg width="16" height="16" viewBox="0 0 16 16" fill="none" xmlns="http://www.w3.org/2000/svg">
<path d="M9.81311 2.32744C9.79414 2.32832 9.77522 2.33027 9.75647 2.3333H6.16663C6.10037 2.33236 6.03459 2.3446 5.97311 2.36931C5.91162 2.39402 5.85566 2.4307 5.80848 2.47722C5.76129 2.52374 5.72382 2.57918 5.69825 2.64031C5.67267 2.70144 5.65951 2.76704 5.65951 2.8333C5.65951 2.89956 5.67267 2.96516 5.69825 3.02629C5.72382 3.08742 5.76129 3.14286 5.80848 3.18938C5.85566 3.2359 5.91162 3.27258 5.97311 3.29729C6.03459 3.322 6.10037 3.33424 6.16663 3.3333H9.10348L5.49085 12.6666H2.83329C2.76704 12.6657 2.70126 12.6779 2.63977 12.7026C2.57829 12.7274 2.52233 12.764 2.47514 12.8106C2.42796 12.8571 2.39049 12.9125 2.36492 12.9736C2.33934 13.0348 2.32617 13.1004 2.32617 13.1666C2.32617 13.2329 2.33934 13.2985 2.36492 13.3596C2.39049 13.4208 2.42796 13.4762 2.47514 13.5227C2.52233 13.5692 2.57829 13.6059 2.63977 13.6306C2.70126 13.6553 2.76704 13.6676 2.83329 13.6666H5.75061C5.80344 13.6752 5.85729 13.6752 5.91012 13.6666H9.83329C9.89955 13.6676 9.96533 13.6553 10.0268 13.6306C10.0883 13.6059 10.1443 13.5692 10.1914 13.5227C10.2386 13.4762 10.2761 13.4208 10.3017 13.3596C10.3272 13.2985 10.3404 13.2329 10.3404 13.1666C10.3404 13.1004 10.3272 13.0348 10.3017 12.9736C10.2761 12.9125 10.2386 12.8571 10.1914 12.8106C10.1443 12.764 10.0883 12.7274 10.0268 12.7026C9.96533 12.6779 9.89955 12.6657 9.83329 12.6666H6.56311L10.1757 3.3333H12.5C12.5662 3.33424 12.632 3.322 12.6935 3.29729C12.755 3.27258 12.8109 3.2359 12.8581 3.18938C12.9053 3.14286 12.9428 3.08742 12.9683 3.02629C12.9939 2.96516 13.0071 2.89956 13.0071 2.8333C13.0071 2.76704 12.9939 2.70144 12.9683 2.64031C12.9428 2.57918 12.9053 2.52374 12.8581 2.47722C12.8109 2.4307 12.755 2.39402 12.6935 2.36931C12.632 2.3446 12.5662 2.33236 12.5 2.3333H9.91598C9.88198 2.32781 9.84751 2.32585 9.81311 2.32744Z" fill="#393E40"/>
</svg>
