<svg width="16" height="16" viewBox="0 0 16 16" fill="none" xmlns="http://www.w3.org/2000/svg">
<path d="M1.83329 3.3333C1.76704 3.33236 1.70126 3.34461 1.63977 3.36931C1.57829 3.39402 1.52233 3.4307 1.47514 3.47722C1.42796 3.52374 1.39049 3.57918 1.36492 3.64031C1.33934 3.70144 1.32617 3.76704 1.32617 3.8333C1.32617 3.89956 1.33934 3.96517 1.36492 4.02629C1.39049 4.08742 1.42796 4.14286 1.47514 4.18938C1.52233 4.2359 1.57829 4.27258 1.63977 4.29729C1.70126 4.322 1.76704 4.33424 1.83329 4.3333H11.5C11.5662 4.33424 11.632 4.322 11.6935 4.29729C11.755 4.27258 11.8109 4.2359 11.8581 4.18938C11.9053 4.14286 11.9428 4.08742 11.9683 4.02629C11.9939 3.96517 12.0071 3.89956 12.0071 3.8333C12.0071 3.76704 11.9939 3.70144 11.9683 3.64031C11.9428 3.57918 11.9053 3.52374 11.8581 3.47722C11.8109 3.4307 11.755 3.39402 11.6935 3.36931C11.632 3.34461 11.5662 3.33236 11.5 3.3333H1.83329ZM1.83329 7.66664C1.76704 7.6657 1.70126 7.67794 1.63977 7.70265C1.57829 7.72735 1.52233 7.76403 1.47514 7.81055C1.42796 7.85708 1.39049 7.91251 1.36492 7.97364C1.33934 8.03477 1.32617 8.10037 1.32617 8.16664C1.32617 8.2329 1.33934 8.2985 1.36492 8.35963C1.39049 8.42076 1.42796 8.47619 1.47514 8.52271C1.52233 8.56924 1.57829 8.60592 1.63977 8.63062C1.70126 8.65533 1.76704 8.66757 1.83329 8.66664H14.1666C14.2329 8.66757 14.2987 8.65533 14.3601 8.63062C14.4216 8.60592 14.4776 8.56924 14.5248 8.52271C14.572 8.47619 14.6094 8.42076 14.635 8.35963C14.6606 8.2985 14.6737 8.2329 14.6737 8.16664C14.6737 8.10037 14.6606 8.03477 14.635 7.97364C14.6094 7.91251 14.572 7.85708 14.5248 7.81055C14.4776 7.76403 14.4216 7.72735 14.3601 7.70265C14.2987 7.67794 14.2329 7.6657 14.1666 7.66664H1.83329ZM2.16663 12C2.10037 11.999 2.03459 12.0113 1.9731 12.036C1.91162 12.0607 1.85566 12.0974 1.80848 12.1439C1.76129 12.1904 1.72382 12.2458 1.69825 12.307C1.67267 12.3681 1.65951 12.4337 1.65951 12.5C1.65951 12.5662 1.67267 12.6318 1.69825 12.693C1.72382 12.7541 1.76129 12.8095 1.80848 12.856C1.85566 12.9026 1.91162 12.9393 1.9731 12.964C2.03459 12.9887 2.10037 13.0009 2.16663 13H9.16663C9.23288 13.0009 9.29866 12.9887 9.36015 12.964C9.42163 12.9393 9.47759 12.9026 9.52478 12.856C9.57196 12.8095 9.60943 12.7541 9.635 12.693C9.66058 12.6318 9.67375 12.5662 9.67375 12.5C9.67375 12.4337 9.66058 12.3681 9.635 12.307C9.60943 12.2458 9.57196 12.1904 9.52478 12.1439C9.47759 12.0974 9.42163 12.0607 9.36015 12.036C9.29866 12.0113 9.23288 11.999 9.16663 12H2.16663Z" fill="#393E40"/>
</svg>
