<svg width="16" height="16" viewBox="0 0 16 16" fill="none" xmlns="http://www.w3.org/2000/svg">
<path d="M3.48501 1.66673C3.43629 1.66816 3.38804 1.67672 3.34178 1.69212L2.34178 2.02545C2.21591 2.06741 2.11186 2.15765 2.05252 2.27633C1.99318 2.395 1.98342 2.53239 2.02538 2.65826C2.06734 2.78414 2.15758 2.88819 2.27626 2.94753C2.39493 3.00686 2.53232 3.01663 2.65819 2.97467L2.99999 2.86074V4.83339C2.99905 4.89965 3.01129 4.96543 3.036 5.02692C3.06071 5.0884 3.09739 5.14436 3.14391 5.19154C3.19043 5.23873 3.24587 5.2762 3.307 5.30177C3.36812 5.32735 3.43373 5.34051 3.49999 5.34051C3.56625 5.34051 3.63185 5.32735 3.69298 5.30177C3.75411 5.2762 3.80955 5.23873 3.85607 5.19154C3.90259 5.14436 3.93927 5.0884 3.96398 5.02692C3.98868 4.96543 4.00092 4.89965 3.99999 4.83339V2.16673C4.00001 2.09979 3.98659 2.03353 3.96053 1.97187C3.93447 1.91021 3.8963 1.85442 3.84827 1.80779C3.80025 1.76116 3.74335 1.72465 3.68095 1.70042C3.61855 1.67618 3.55192 1.66473 3.48501 1.66673ZM7.16665 3.33339C7.1004 3.33246 7.03462 3.3447 6.97313 3.3694C6.91165 3.39411 6.85569 3.43079 6.8085 3.47731C6.76132 3.52384 6.72385 3.57927 6.69828 3.6404C6.6727 3.70153 6.65953 3.76713 6.65953 3.83339C6.65953 3.89966 6.6727 3.96526 6.69828 4.02639C6.72385 4.08751 6.76132 4.14295 6.8085 4.18947C6.85569 4.236 6.91165 4.27268 6.97313 4.29738C7.03462 4.32209 7.1004 4.33433 7.16665 4.33339H13.1667C13.2329 4.33433 13.2987 4.32209 13.3602 4.29738C13.4217 4.27268 13.4776 4.236 13.5248 4.18947C13.572 4.14295 13.6095 4.08751 13.635 4.02639C13.6606 3.96526 13.6738 3.89966 13.6738 3.83339C13.6738 3.76713 13.6606 3.70153 13.635 3.6404C13.6095 3.57927 13.572 3.52384 13.5248 3.47731C13.4776 3.43079 13.4217 3.39411 13.3602 3.3694C13.2987 3.3447 13.2329 3.33246 13.1667 3.33339H7.16665ZM3.36783 6.00006C2.86783 6.00006 2.49138 6.2751 2.29426 6.52089C2.09713 6.76669 2.02147 7.0222 2.02147 7.0222C2.00043 7.0856 1.99231 7.15258 1.99758 7.21918C2.00286 7.28578 2.02143 7.35065 2.05219 7.40995C2.08295 7.46925 2.12529 7.52179 2.17669 7.56446C2.2281 7.60713 2.28753 7.63907 2.35149 7.65839C2.41544 7.6777 2.48262 7.68401 2.54905 7.67693C2.61548 7.66985 2.67982 7.64953 2.73827 7.61718C2.79672 7.58482 2.84809 7.54108 2.88935 7.48853C2.93061 7.43599 2.96093 7.37571 2.9785 7.31126C2.9785 7.31126 3.004 7.23344 3.07421 7.14589C3.14442 7.05835 3.20116 7.00006 3.36783 7.00006C3.50532 7.00006 3.5303 7.03106 3.58137 7.10032C3.63243 7.16958 3.66665 7.30122 3.66665 7.35944C3.66665 7.4944 3.63999 7.53536 3.55272 7.62246C3.46546 7.70955 3.30109 7.81054 3.10155 7.91477C2.90201 8.01901 2.67175 8.12373 2.44921 8.30084C2.22667 8.47795 1.99999 8.79276 1.99999 9.16673C2 9.29933 2.05268 9.4265 2.14645 9.52027C2.24021 9.61403 2.36738 9.66671 2.49999 9.66673H4.49999C4.56624 9.66766 4.63203 9.65542 4.69351 9.63072C4.75499 9.60601 4.81095 9.56933 4.85814 9.52281C4.90532 9.47628 4.94279 9.42085 4.96837 9.35972C4.99394 9.29859 5.00711 9.23299 5.00711 9.16673C5.00711 9.10046 4.99394 9.03486 4.96837 8.97373C4.94279 8.9126 4.90532 8.85717 4.85814 8.81065C4.81095 8.76412 4.75499 8.72744 4.69351 8.70274C4.63203 8.67803 4.56624 8.66579 4.49999 8.66673H3.76301C3.92898 8.57358 4.09869 8.49088 4.25975 8.33014C4.48499 8.10535 4.66665 7.7558 4.66665 7.35944C4.66665 7.08165 4.58999 6.7838 4.38606 6.50722C4.18212 6.23065 3.80767 6.00006 3.36783 6.00006ZM7.16665 7.66673C7.1004 7.66579 7.03462 7.67803 6.97313 7.70274C6.91165 7.72744 6.85569 7.76412 6.8085 7.81065C6.76132 7.85717 6.72385 7.9126 6.69828 7.97373C6.6727 8.03486 6.65953 8.10046 6.65953 8.16673C6.65953 8.23299 6.6727 8.29859 6.69828 8.35972C6.72385 8.42085 6.76132 8.47628 6.8085 8.52281C6.85569 8.56933 6.91165 8.60601 6.97313 8.63072C7.03462 8.65542 7.1004 8.66766 7.16665 8.66673H13.1667C13.2329 8.66766 13.2987 8.65542 13.3602 8.63072C13.4217 8.60601 13.4776 8.56933 13.5248 8.52281C13.572 8.47628 13.6095 8.42085 13.635 8.35972C13.6606 8.29859 13.6738 8.23299 13.6738 8.16673C13.6738 8.10046 13.6606 8.03486 13.635 7.97373C13.6095 7.9126 13.572 7.85717 13.5248 7.81065C13.4776 7.76412 13.4217 7.72744 13.3602 7.70274C13.2987 7.67803 13.2329 7.66579 13.1667 7.66673H7.16665ZM3.36783 10.6667C2.62717 10.6667 2.14777 11.1452 2.14777 11.1452C2.09964 11.1911 2.06116 11.2462 2.03456 11.3071C2.00796 11.3681 1.9938 11.4338 1.99289 11.5003C1.99198 11.5668 2.00434 11.6328 2.02926 11.6944C2.05418 11.7561 2.09114 11.8122 2.138 11.8594C2.18486 11.9066 2.24066 11.944 2.30214 11.9693C2.36362 11.9947 2.42954 12.0076 2.49605 12.0071C2.56256 12.0067 2.62831 11.993 2.68947 11.9669C2.75062 11.9408 2.80595 11.9027 2.8522 11.8549C2.8522 11.8549 3.04515 11.6667 3.36783 11.6667C3.50045 11.6667 3.58829 11.7075 3.62824 11.7396C3.66819 11.7718 3.66665 11.7788 3.66665 11.8015C3.66665 11.9757 3.63961 11.9632 3.62889 11.9714C3.61818 11.9797 3.55978 12.0001 3.49999 12.0001C3.3686 12.0019 3.24323 12.0554 3.15098 12.149C3.05873 12.2425 3.00701 12.3687 3.00701 12.5001C3.00701 12.6315 3.05873 12.7576 3.15098 12.8511C3.24323 12.9447 3.3686 12.9982 3.49999 13.0001C3.49465 13.0001 3.67763 13.0284 3.76692 13.0749C3.8562 13.1215 3.83332 13.101 3.83332 13.1088C3.83332 13.1953 3.81897 13.2105 3.76757 13.2507C3.71616 13.291 3.60787 13.3334 3.47069 13.3334C3.12636 13.3334 2.80923 13.1075 2.80923 13.1075C2.75797 13.0641 2.69851 13.0316 2.63439 13.0117C2.57028 12.9918 2.50281 12.9851 2.43603 12.9918C2.36924 12.9986 2.3045 13.0187 2.24567 13.051C2.18683 13.0833 2.1351 13.1272 2.09356 13.1799C2.05203 13.2326 2.02153 13.2932 2.0039 13.358C1.98626 13.4227 1.98184 13.4904 1.99091 13.5569C1.99998 13.6234 2.02235 13.6874 2.05668 13.7451C2.09101 13.8028 2.13661 13.853 2.19074 13.8926C2.19074 13.8926 2.72035 14.3334 3.47069 14.3334C3.79718 14.3334 4.12009 14.2446 4.3841 14.0378C4.64811 13.8311 4.83332 13.4836 4.83332 13.1088C4.83332 12.8086 4.67993 12.5924 4.50259 12.4206C4.59941 12.2396 4.66665 12.0334 4.66665 11.8015C4.66665 11.4669 4.4985 11.1562 4.2552 10.9603C4.0119 10.7645 3.69954 10.6667 3.36783 10.6667ZM7.16665 12.0001C7.1004 11.9991 7.03462 12.0114 6.97313 12.0361C6.91165 12.0608 6.85569 12.0975 6.8085 12.144C6.76132 12.1905 6.72385 12.2459 6.69828 12.3071C6.6727 12.3682 6.65953 12.4338 6.65953 12.5001C6.65953 12.5663 6.6727 12.6319 6.69828 12.6931C6.72385 12.7542 6.76132 12.8096 6.8085 12.8561C6.85569 12.9027 6.91165 12.9393 6.97313 12.964C7.03462 12.9888 7.1004 13.001 7.16665 13.0001H13.1667C13.2329 13.001 13.2987 12.9888 13.3602 12.964C13.4217 12.9393 13.4776 12.9027 13.5248 12.8561C13.572 12.8096 13.6095 12.7542 13.635 12.6931C13.6606 12.6319 13.6738 12.5663 13.6738 12.5001C13.6738 12.4338 13.6606 12.3682 13.635 12.3071C13.6095 12.2459 13.572 12.1905 13.5248 12.144C13.4776 12.0975 13.4217 12.0608 13.3602 12.0361C13.2987 12.0114 13.2329 11.9991 13.1667 12.0001H7.16665Z" fill="#393E40"/>
</svg>
