<svg width="16" height="16" viewBox="0 0 16 16" fill="none" xmlns="http://www.w3.org/2000/svg">
<path d="M4.49996 3.3333C4.4337 3.33236 4.36792 3.34461 4.30644 3.36931C4.24495 3.39402 4.18899 3.4307 4.14181 3.47722C4.09462 3.52374 4.05716 3.57918 4.03158 3.64031C4.00601 3.70144 3.99284 3.76704 3.99284 3.8333C3.99284 3.89956 4.00601 3.96517 4.03158 4.02629C4.05716 4.08742 4.09462 4.14286 4.14181 4.18938C4.18899 4.2359 4.24495 4.27258 4.30644 4.29729C4.36792 4.322 4.4337 4.33424 4.49996 4.3333H14.1666C14.2329 4.33424 14.2987 4.322 14.3601 4.29729C14.4216 4.27258 14.4776 4.2359 14.5248 4.18938C14.572 4.14286 14.6094 4.08742 14.635 4.02629C14.6606 3.96517 14.6737 3.89956 14.6737 3.8333C14.6737 3.76704 14.6606 3.70144 14.635 3.64031C14.6094 3.57918 14.572 3.52374 14.5248 3.47722C14.4776 3.4307 14.4216 3.39402 14.3601 3.36931C14.2987 3.34461 14.2329 3.33236 14.1666 3.3333H4.49996ZM1.83329 7.66664C1.76704 7.6657 1.70126 7.67794 1.63977 7.70265C1.57829 7.72735 1.52233 7.76403 1.47514 7.81055C1.42796 7.85708 1.39049 7.91251 1.36492 7.97364C1.33934 8.03477 1.32617 8.10037 1.32617 8.16664C1.32617 8.2329 1.33934 8.2985 1.36492 8.35963C1.39049 8.42076 1.42796 8.47619 1.47514 8.52271C1.52233 8.56924 1.57829 8.60592 1.63977 8.63062C1.70126 8.65533 1.76704 8.66757 1.83329 8.66664H14.1666C14.2329 8.66757 14.2987 8.65533 14.3601 8.63062C14.4216 8.60592 14.4776 8.56924 14.5248 8.52271C14.572 8.47619 14.6094 8.42076 14.635 8.35963C14.6606 8.2985 14.6737 8.2329 14.6737 8.16664C14.6737 8.10037 14.6606 8.03477 14.635 7.97364C14.6094 7.91251 14.572 7.85708 14.5248 7.81055C14.4776 7.76403 14.4216 7.72735 14.3601 7.70265C14.2987 7.67794 14.2329 7.6657 14.1666 7.66664H1.83329ZM6.83329 12C6.76704 11.999 6.70126 12.0113 6.63977 12.036C6.57829 12.0607 6.52233 12.0974 6.47514 12.1439C6.42796 12.1904 6.39049 12.2458 6.36492 12.307C6.33934 12.3681 6.32617 12.4337 6.32617 12.5C6.32617 12.5662 6.33934 12.6318 6.36492 12.693C6.39049 12.7541 6.42796 12.8095 6.47514 12.856C6.52233 12.9026 6.57829 12.9393 6.63977 12.964C6.70126 12.9887 6.76704 13.0009 6.83329 13H13.8333C13.8995 13.0009 13.9653 12.9887 14.0268 12.964C14.0883 12.9393 14.1443 12.9026 14.1914 12.856C14.2386 12.8095 14.2761 12.7541 14.3017 12.693C14.3272 12.6318 14.3404 12.5662 14.3404 12.5C14.3404 12.4337 14.3272 12.3681 14.3017 12.307C14.2761 12.2458 14.2386 12.1904 14.1914 12.1439C14.1443 12.0974 14.0883 12.0607 14.0268 12.036C13.9653 12.0113 13.8995 11.999 13.8333 12H6.83329Z" fill="#393E40"/>
</svg>
