<svg width="120" height="120" viewBox="0 0 120 120" fill="none" xmlns="http://www.w3.org/2000/svg">
<circle opacity="0.1" cx="60" cy="60" r="60" fill="#B74E4E"/>
<circle opacity="0.1" cx="60" cy="60" r="50" fill="#B74E4E"/>
<circle cx="60" cy="60" r="40" fill="#B74E4E"/>
<path d="M67.167 52H73.8337V54.6667H71.167V72C71.167 72.7364 70.5701 73.3333 69.8337 73.3333H51.167C50.4306 73.3333 49.8337 72.7364 49.8337 72V54.6667H47.167V52H53.8337V48C53.8337 47.2636 54.4306 46.6667 55.167 46.6667H65.8337C66.5701 46.6667 67.167 47.2636 67.167 48V52ZM68.5003 54.6667H52.5003V70.6667H68.5003V54.6667ZM56.5003 58.6667H59.167V66.6667H56.5003V58.6667ZM61.8337 58.6667H64.5003V66.6667H61.8337V58.6667ZM56.5003 49.3333V52H64.5003V49.3333H56.5003Z" fill="white"/>
</svg>
