<svg width="16" height="16" viewBox="0 0 16 16" fill="none" xmlns="http://www.w3.org/2000/svg">
<path d="M3.49247 1.65948C3.35998 1.66155 3.23372 1.71613 3.14144 1.81122C3.04915 1.90632 2.99838 2.03415 3.00029 2.16665V7.83331C3.00029 10.4968 5.17009 12.6666 7.83362 12.6666C10.4971 12.6666 12.667 10.4968 12.667 7.83331V2.16665C12.6679 2.10039 12.6556 2.03461 12.6309 1.97312C12.6062 1.91164 12.5696 1.85568 12.523 1.8085C12.4765 1.76131 12.4211 1.72384 12.3599 1.69827C12.2988 1.67269 12.2332 1.65953 12.167 1.65953C12.1007 1.65953 12.0351 1.67269 11.974 1.69827C11.9128 1.72384 11.8574 1.76131 11.8109 1.8085C11.7643 1.85568 11.7277 1.91164 11.703 1.97312C11.6783 2.03461 11.666 2.10039 11.667 2.16665V7.83331C11.667 9.95645 9.95676 11.6666 7.83362 11.6666C5.71048 11.6666 4.00029 9.95645 4.00029 7.83331V2.16665C4.00125 2.09972 3.98876 2.03329 3.96357 1.97128C3.93838 1.90927 3.901 1.85295 3.85365 1.80566C3.80629 1.75836 3.74992 1.72106 3.68788 1.69595C3.62584 1.67084 3.55939 1.65844 3.49247 1.65948ZM3.50029 13.6666C3.43403 13.6657 3.36825 13.6779 3.30676 13.7027C3.24528 13.7274 3.18932 13.764 3.14213 13.8106C3.09495 13.8571 3.05748 13.9125 3.03191 13.9737C3.00633 14.0348 2.99316 14.1004 2.99316 14.1666C2.99316 14.2329 3.00633 14.2985 3.03191 14.3596C3.05748 14.4208 3.09495 14.4762 3.14213 14.5227C3.18932 14.5692 3.24528 14.6059 3.30676 14.6306C3.36825 14.6553 3.43403 14.6676 3.50029 14.6666H12.5003C12.5665 14.6676 12.6323 14.6553 12.6938 14.6306C12.7553 14.6059 12.8112 14.5692 12.8584 14.5227C12.9056 14.4762 12.9431 14.4208 12.9687 14.3596C12.9942 14.2985 13.0074 14.2329 13.0074 14.1666C13.0074 14.1004 12.9942 14.0348 12.9687 13.9737C12.9431 13.9125 12.9056 13.8571 12.8584 13.8106C12.8112 13.764 12.7553 13.7274 12.6938 13.7027C12.6323 13.6779 12.5665 13.6657 12.5003 13.6666H3.50029Z" fill="#393E40"/>
</svg>
