<svg width="16" height="16" viewBox="0 0 16 16" fill="none" xmlns="http://www.w3.org/2000/svg">
<path d="M2.16732 4C1.9463 4 1.73434 4.0878 1.57806 4.24408C1.42178 4.40036 1.33398 4.61232 1.33398 4.83333C1.33398 5.05435 1.42178 5.26631 1.57806 5.42259C1.73434 5.57887 1.9463 5.66667 2.16732 5.66667C2.38833 5.66667 2.60029 5.57887 2.75657 5.42259C2.91285 5.26631 3.00065 5.05435 3.00065 4.83333C3.00065 4.61232 2.91285 4.40036 2.75657 4.24408C2.60029 4.0878 2.38833 4 2.16732 4ZM4.50065 4.33333C4.4344 4.3324 4.36861 4.34464 4.30713 4.36934C4.24565 4.39405 4.18968 4.43073 4.1425 4.47725C4.09532 4.52378 4.05785 4.57921 4.03227 4.64034C4.0067 4.70147 3.99353 4.76707 3.99353 4.83333C3.99353 4.8996 4.0067 4.9652 4.03227 5.02633C4.05785 5.08745 4.09532 5.14289 4.1425 5.18941C4.18968 5.23594 4.24565 5.27262 4.30713 5.29732C4.36861 5.32203 4.4344 5.33427 4.50065 5.33333H14.1673C14.2336 5.33427 14.2994 5.32203 14.3608 5.29732C14.4223 5.27262 14.4783 5.23594 14.5255 5.18941C14.5727 5.14289 14.6101 5.08745 14.6357 5.02633C14.6613 4.9652 14.6744 4.8996 14.6744 4.83333C14.6744 4.76707 14.6613 4.70147 14.6357 4.64034C14.6101 4.57921 14.5727 4.52378 14.5255 4.47725C14.4783 4.43073 14.4223 4.39405 14.3608 4.36934C14.2994 4.34464 14.2336 4.3324 14.1673 4.33333H4.50065ZM2.16732 7.33333C1.9463 7.33333 1.73434 7.42113 1.57806 7.57741C1.42178 7.73369 1.33398 7.94565 1.33398 8.16667C1.33398 8.38768 1.42178 8.59964 1.57806 8.75592C1.73434 8.9122 1.9463 9 2.16732 9C2.38833 9 2.60029 8.9122 2.75657 8.75592C2.91285 8.59964 3.00065 8.38768 3.00065 8.16667C3.00065 7.94565 2.91285 7.73369 2.75657 7.57741C2.60029 7.42113 2.38833 7.33333 2.16732 7.33333ZM4.50065 7.66667C4.4344 7.66573 4.36861 7.67797 4.30713 7.70268C4.24565 7.72738 4.18968 7.76406 4.1425 7.81059C4.09532 7.85711 4.05785 7.91254 4.03227 7.97367C4.0067 8.0348 3.99353 8.1004 3.99353 8.16667C3.99353 8.23293 4.0067 8.29853 4.03227 8.35966C4.05785 8.42079 4.09532 8.47622 4.1425 8.52275C4.18968 8.56927 4.24565 8.60595 4.30713 8.63066C4.36861 8.65536 4.4344 8.6676 4.50065 8.66667H14.1673C14.2336 8.6676 14.2994 8.65536 14.3608 8.63066C14.4223 8.60595 14.4783 8.56927 14.5255 8.52275C14.5727 8.47622 14.6101 8.42079 14.6357 8.35966C14.6613 8.29853 14.6744 8.23293 14.6744 8.16667C14.6744 8.1004 14.6613 8.0348 14.6357 7.97367C14.6101 7.91254 14.5727 7.85711 14.5255 7.81059C14.4783 7.76406 14.4223 7.72738 14.3608 7.70268C14.2994 7.67797 14.2336 7.66573 14.1673 7.66667H4.50065ZM2.16732 10.6667C1.9463 10.6667 1.73434 10.7545 1.57806 10.9107C1.42178 11.067 1.33398 11.279 1.33398 11.5C1.33398 11.721 1.42178 11.933 1.57806 12.0893C1.73434 12.2455 1.9463 12.3333 2.16732 12.3333C2.38833 12.3333 2.60029 12.2455 2.75657 12.0893C2.91285 11.933 3.00065 11.721 3.00065 11.5C3.00065 11.279 2.91285 11.067 2.75657 10.9107C2.60029 10.7545 2.38833 10.6667 2.16732 10.6667ZM4.50065 11C4.4344 10.9991 4.36861 11.0113 4.30713 11.036C4.24565 11.0607 4.18968 11.0974 4.1425 11.1439C4.09532 11.1904 4.05785 11.2459 4.03227 11.307C4.0067 11.3681 3.99353 11.4337 3.99353 11.5C3.99353 11.5663 4.0067 11.6319 4.03227 11.693C4.05785 11.7541 4.09532 11.8096 4.1425 11.8561C4.18968 11.9026 4.24565 11.9393 4.30713 11.964C4.36861 11.9887 4.4344 12.0009 4.50065 12H14.1673C14.2336 12.0009 14.2994 11.9887 14.3608 11.964C14.4223 11.9393 14.4783 11.9026 14.5255 11.8561C14.5727 11.8096 14.6101 11.7541 14.6357 11.693C14.6613 11.6319 14.6744 11.5663 14.6744 11.5C14.6744 11.4337 14.6613 11.3681 14.6357 11.307C14.6101 11.2459 14.5727 11.1904 14.5255 11.1439C14.4783 11.0974 14.4223 11.0607 14.3608 11.036C14.2994 11.0113 14.2336 10.9991 14.1673 11H4.50065Z" fill="#393E40"/>
</svg>
